HIERARCHY
ROOT Hips
{
  OFFSET 45.7534 53.3363 0.386181
  CHANNELS 6 Xposition Yposition Zposition Zrotation Xrotation Yrotation
  JOINT spine
  {
    OFFSET 0 8.30104 0.477351
    CHANNELS 3 Zrotation Xrotation Yrotation
    JOINT spine1
    {
      OFFSET 0 10.4565 0
      CHANNELS 3 Zrotation Xrotation Yrotation
      JOINT spine2
      {
        OFFSET 0 10.0192 0
        CHANNELS 3 Zrotation Xrotation Yrotation
        JOINT Neck
        {
          OFFSET 0 25.7235 1.22641
          CHANNELS 3 Zrotation Xrotation Yrotation
          JOINT Head
          {
            OFFSET 0 7.77175 0
            CHANNELS 3 Zrotation Xrotation Yrotation
            End Site
            {
              OFFSET 0 18.812 -6.20394
            }
          }
        }
        JOINT RightShoulder
        {
          OFFSET -4.2188 10.82 -0.587439
          CHANNELS 3 Zrotation Xrotation Yrotation
          JOINT RightArm
          {
            OFFSET 0 14.1914 0
            CHANNELS 3 Zrotation Xrotation Yrotation
            JOINT RightArmRoll
            {
              OFFSET 0 7.16409 0
              CHANNELS 3 Zrotation Xrotation Yrotation
              JOINT RightForeArm
              {
                OFFSET 0 20.8665 0
                CHANNELS 3 Zrotation Xrotation Yrotation
                JOINT RightForeArmRoll
                {
                  OFFSET 0 8.03921 0
                  CHANNELS 3 Zrotation Xrotation Yrotation
                  JOINT RightHand
                  {
                    OFFSET 0 16.133 0
                    CHANNELS 3 Zrotation Xrotation Yrotation
                    End Site
                    {
                      OFFSET 0 0 0
                    }
                  }
                }
              }
            }
          }
        }
        JOINT LeftShoulder
        {
          OFFSET 4.2188 10.82 -0.587439
          CHANNELS 3 Zrotation Xrotation Yrotation
          JOINT LeftArm
          {
            OFFSET 0 14.1914 0
            CHANNELS 3 Zrotation Xrotation Yrotation
            JOINT LeftArmRoll
            {
              OFFSET 0 7.16408 0
              CHANNELS 3 Zrotation Xrotation Yrotation
              JOINT LeftForeArm
              {
                OFFSET 0 20.8665 0
                CHANNELS 3 Zrotation Xrotation Yrotation
                JOINT LeftForeArmRoll
                {
                  OFFSET 0 8.03921 0
                  CHANNELS 3 Zrotation Xrotation Yrotation
                  JOINT LeftHand
                  {
                    OFFSET 0 16.133 0
                    CHANNELS 3 Zrotation Xrotation Yrotation
                    End Site
                    {
                      OFFSET 0 0 0
                    }
                  }
                }
              }
            }
          }
        }
      }
    }
  }
  JOINT RightUpLeg
  {
    OFFSET -7.35773 -1.34921 -1.13182
    CHANNELS 3 Zrotation Xrotation Yrotation
    JOINT RightUpLegRoll
    {
      OFFSET 0 18.9168 0
      CHANNELS 3 Zrotation Xrotation Yrotation
      JOINT RightLeg
      {
        OFFSET 0 -23.4256 0
        CHANNELS 3 Zrotation Xrotation Yrotation
        JOINT RightLegRoll
        {
          OFFSET 0 23.5023 0
          CHANNELS 3 Zrotation Xrotation Yrotation
          JOINT RightFoot
          {
            OFFSET 0 19.5617 0
            CHANNELS 3 Zrotation Xrotation Yrotation
            JOINT RightToeBase
            {
              OFFSET 0 16.3526 0
              CHANNELS 3 Zrotation Xrotation Yrotation
              End Site
              {
                OFFSET 0.00693125 7.91944 -0.912836
              }
            }
          }
        }
      }
    }
  }
  JOINT LeftUpLeg
  {
    OFFSET 7.35773 -1.34921 -1.13182
    CHANNELS 3 Zrotation Xrotation Yrotation
    JOINT LeftUpLegRoll
    {
      OFFSET 0 18.9169 0
      CHANNELS 3 Zrotation Xrotation Yrotation
      JOINT LeftLeg
      {
        OFFSET 0 23.4255 0
        CHANNELS 3 Zrotation Xrotation Yrotation
        JOINT LeftLegRoll
        {
          OFFSET 0 23.7195 0
          CHANNELS 3 Zrotation Xrotation Yrotation
          JOINT LeftFoot
          {
            OFFSET 0 19.3444 0
            CHANNELS 3 Zrotation Xrotation Yrotation
            JOINT LeftToeBase
            {
              OFFSET 0 16.3526 0
              CHANNELS 3 Zrotation Xrotation Yrotation
              End Site
              {
                OFFSET -0.0310629 7.91943 -0.912837
              }
            }
          }
        }
      }
    }
  }
}
MOTION
Frames: 6
Frame Time: 0.00208333
44.2882 98.6386 31.4844 -0.220442 -2.83365 1.64964 0.199282 -1.23246 0.220765 0.402436 1.5245 0.418956 0.397723 3.16953 0.412717 -0.840196 19.984 -0.456989 -1.08481 -6.88856 -0.903386 73.2328 -1.25719 -2.26039 96.3557 23.9675 23.5135 3.87892e-006 -5.28352e-006 -3.65298e-006 8.73319 0.362692 0.237727 -3.27778e-006 2.03047e-006 -3.00108 8.02907 -4.95142 0.697661 -64.225 1.99236 -0.424946 -102.948 17.3278 -15.7913 -9.54166e-015 -6.36111e-015 -3.18055e-015 -8.30294 0.336264 0.573819 -8.10474e-006 5.61481e-006 3.007 -8.02911 -4.95144 -0.697662 175.12 0.711395 0.870863 180 7.01532e-015 178.86 177.363 7.41571 179.61 5.18568e-006 -3.51248e-006 0.090336 -18.6468 67.8315 19.3888 8.1336 25.2328 -3.4865 -172.265 1.93819 -0.763101 4.54188e-006 -4.6773e-006 -1.21242 -2.61362 -11.7467 0.539053 -1.6041e-006 -1.61639e-006 -0.16997 18.7444 67.8668 -19.4264 -8.12792 25.2331 3.48408 
44.2887 98.6421 31.4773 -0.221345 -2.83075 1.65398 0.19813 -1.2322 0.220135 0.401563 1.52602 0.416775 0.396872 3.17105 0.41083 -0.843409 19.9928 -0.45622 -1.082 -6.89897 -0.903358 73.2305 -1.26065 -2.26176 96.3639 24.0026 23.4387 3.87892e-006 -5.28352e-006 -3.65298e-006 8.77252 0.471941 0.222849 -3.27778e-006 2.03047e-006 -3.00108 8.02907 -4.95142 0.697661 -64.2237 1.9859 -0.421534 -102.957 17.3591 -15.7372 -7.95139e-015 -3.18055e-015 -0 -8.32382 0.437717 0.583031 -8.10474e-006 5.61481e-006 3.007 -8.02911 -4.95144 -0.697662 175.118 0.729745 0.876067 180 7.01532e-015 178.86 177.356 7.43234 179.611 5.18568e-006 -3.51248e-006 0.0907434 -18.6478 67.8327 19.3898 8.1336 25.2328 -3.4865 -172.26 1.96301 -0.770521 4.54188e-006 -4.6773e-006 -1.21243 -2.61783 -11.7708 0.537966 -1.6041e-006 -1.61639e-006 -0.169931 18.7424 67.8645 -19.4242 -8.12792 25.2331 3.48408 
44.3014 98.6327 31.4375 -0.222395 -2.8281 1.65816 0.196936 -1.23196 0.219532 0.400719 1.52756 0.414581 0.396051 3.17259 0.40895 -0.846265 20.0015 -0.455602 -1.07949 -6.90907 -0.903412 73.2289 -1.26415 -2.26319 96.3714 24.0376 23.3632 3.87892e-006 -5.28352e-006 -3.65298e-006 8.81277 0.581723 0.207876 -3.27778e-006 2.03047e-006 -3.00108 8.02907 -4.95142 0.697661 -64.2221 1.97924 -0.418052 -102.967 17.3902 -15.6829 1.59028e-015 -6.36111e-015 -1.59028e-015 -8.345 0.539273 0.592235 -8.10474e-006 5.61481e-006 3.007 -8.02911 -4.95144 -0.697662 175.116 0.747118 0.881034 180 7.01532e-015 178.86 177.349 7.44789 179.611 5.18568e-006 -3.51248e-006 0.0911342 -18.6487 67.8338 19.3908 8.1336 25.2328 -3.4865 -172.256 1.98708 -0.778161 4.54188e-006 -4.6773e-006 -1.21245 -2.62215 -11.7945 0.536852 -1.6041e-006 -1.61639e-006 -0.169874 18.7406 67.8622 -19.4222 -8.12792 25.2331 3.48408 
44.2899 98.6286 31.4355 -0.223547 -2.82564 1.66224 0.195715 -1.23172 0.218949 0.399896 1.52911 0.412379 0.39525 3.17414 0.407074 -0.848871 20.0102 -0.455092 -1.0772 -6.91895 -0.903524 73.2277 -1.26766 -2.26467 96.3784 24.0725 23.2874 3.87892e-006 -5.28352e-006 -3.65298e-006 8.85367 0.691879 0.192837 -3.27778e-006 2.03047e-006 -3.00108 8.02907 -4.95142 0.697661 -64.2202 1.97244 -0.414519 -102.977 17.4212 -15.6284 3.18055e-015 -3.18055e-015 -0 -8.36639 0.640901 0.601434 -8.10474e-006 5.61481e-006 3.007 -8.02911 -4.95144 -0.697662 175.114 0.763808 0.885835 180 7.01532e-015 178.86 177.342 7.46269 179.612 5.18568e-006 -3.51248e-006 0.0915133 -18.6497 67.8349 19.3918 8.1336 25.2328 -3.4865 -172.251 2.01064 -0.785953 4.54188e-006 -4.6773e-006 -1.21246 -2.62656 -11.8179 0.53572 -1.6041e-006 -1.61639e-006 -0.169804 18.7387 67.86 -19.4202 -8.12792 25.2331 3.48408 
44.289 98.6399 31.4292 -0.224759 -2.82328 1.66625 0.194477 -1.23149 0.218376 0.399085 1.53067 0.410173 0.394462 3.1757 0.405201 -0.851335 20.0189 -0.454641 -1.07502 -6.9287 -0.903669 73.2268 -1.27119 -2.26619 96.3853 24.1074 23.2112 3.87892e-006 -5.28352e-006 -3.65298e-006 8.89496 0.802248 0.17776 -3.27778e-006 2.03047e-006 -3.00108 8.02907 -4.95142 0.697661 -64.2183 1.96556 -0.410958 -102.986 17.4522 -15.5739 -7.95139e-016 -6.36111e-015 1.59028e-015 -8.38791 0.74257 0.610632 -8.10474e-006 5.61481e-006 3.007 -8.02911 -4.95144 -0.697662 175.112 0.780107 0.89054 180 7.01532e-015 178.86 177.336 7.47705 179.612 5.18568e-006 -3.51248e-006 0.0918857 -18.6507 67.836 19.3928 8.1336 25.2328 -3.4865 -172.246 2.0339 -0.793834 4.54188e-006 -4.6773e-006 -1.21249 -2.63101 -11.8412 0.534578 -1.6041e-006 -1.61639e-006 -0.169726 18.7369 67.8579 -19.4182 -8.12792 25.2331 3.48408 
44.2952 98.6383 31.4178 -0.225986 -2.82094 1.67025 0.193236 -1.23126 0.217806 0.398277 1.53222 0.407965 0.393676 3.17726 0.403328 -0.853764 20.0275 -0.454207 -1.07288 -6.93841 -0.903823 73.2259 -1.27473 -2.26771 96.3921 24.1422 23.135 3.87892e-006 -5.28352e-006 -3.65298e-006 8.93641 0.912671 0.162673 -3.27778e-006 2.03047e-006 -3.00108 8.02907 -4.95142 0.697661 -64.2163 1.95866 -0.407389 -102.996 17.4832 -15.5194 7.15625e-015 -3.18055e-015 3.18055e-015 -8.40949 0.844248 0.619831 -8.10474e-006 5.61481e-006 3.007 -8.02911 -4.95144 -0.697662 175.11 0.796308 0.895222 180 7.01532e-015 178.86 177.329 7.4913 179.613 5.18568e-006 -3.51248e-006 0.0922565 -18.6517 67.8371 19.3937 8.1336 25.2328 -3.4865 -172.241 2.05709 -0.801737 4.54188e-006 -4.6773e-006 -1.21251 -2.63547 -11.8644 0.533433 -1.6041e-006 -1.61639e-006 -0.169647 18.7351 67.8557 -19.4162 -8.12792 25.2331 3.48408 
